# xmcd
#
# Track frame offsets: 
#        150
#        24867
#        41605
#        68980
#        85565
#        119392
#        153037
#        170997
#        189355
#        209162
#        235327
#        263040
#        288475
#
# Disc length: 4137 seconds
#
# Revision: 2
# Processed by: cddbd v1.5.2PL0 Copyright (c) Steve Scherf et al.
# Submitted via: ExactAudioCopy v1.0b1
#
DISCID=b210270d
DTITLE=Pete Cornelius And The DEvilles - Creatures Of The Night
DYEAR=2004
DGENRE=Blues
TTITLE0=Creatures of the night
TTITLE1=That mars song
TTITLE2=Billfish bay
TTITLE3=Running in the red
TTITLE4=Youth in asia
TTITLE5=Ashers room
TTITLE6=Help cat roar
TTITLE7=Rock n roll
TTITLE8=Cherry bomb
TTITLE9=Stairway to hell
TTITLE10=Goin' down
TTITLE11=Albatross
TTITLE12=Bunglo party
EXTD=
EXTT0=
EXTT1=
EXTT2=
EXTT3=
EXTT4=
EXTT5=
EXTT6=
EXTT7=
EXTT8=
EXTT9=
EXTT10=
EXTT11=
EXTT12=
PLAYORDER=
